<svg viewBox="0 0 26 26" xmlns="http://www.w3.org/2000/svg">
<path fill-rule="evenodd" clip-rule="evenodd" d="M19.7383 11.7038C20.4545 10.9863 21.6156 10.9874 22.3317 11.7035L24.0499 13.4217C24.7672 14.1379 24.7667 15.2995 24.0506 16.0155L17.0992 22.9669C16.7548 23.3114 16.2887 23.5041 15.8027 23.5041H13C12.5858 23.5041 12.25 23.1683 12.25 22.7541V19.9515C12.25 19.4654 12.4428 18.9993 12.7872 18.6549L19.7383 11.7038C19.7385 11.7036 19.7382 11.7039 19.7383 11.7038ZM21.2711 12.7642C21.1398 12.6329 20.9292 12.6339 20.8 12.7635L13.8479 19.7156C13.7848 19.7786 13.75 19.8631 13.75 19.9515V22.0041H15.8027C15.891 22.0041 15.9755 21.9693 16.0386 21.9063L22.99 14.9549C23.1212 14.8236 23.1202 14.613 22.9906 14.4837L21.2711 12.7642Z" />
<path fill-rule="evenodd" clip-rule="evenodd" d="M2.49609 10.9531C2.49609 10.5389 2.83188 10.2031 3.24609 10.2031H13.8433C14.2576 10.2031 14.5933 10.5389 14.5933 10.9531C14.5933 11.3673 14.2576 11.7031 13.8433 11.7031H3.24609C2.83188 11.7031 2.49609 11.3673 2.49609 10.9531Z" />
<path fill-rule="evenodd" clip-rule="evenodd" d="M2.49609 7.09912C2.49609 6.68491 2.83188 6.34912 3.24609 6.34912H20.5866C21.0009 6.34912 21.3366 6.68491 21.3366 7.09912C21.3366 7.51333 21.0009 7.84912 20.5866 7.84912H3.24609C2.83188 7.84912 2.49609 7.51333 2.49609 7.09912Z" />
<path fill-rule="evenodd" clip-rule="evenodd" d="M2.49609 3.24609C2.49609 2.83188 2.83188 2.49609 3.24609 2.49609H20.5866C21.0009 2.49609 21.3366 2.83188 21.3366 3.24609C21.3366 3.66031 21.0009 3.99609 20.5866 3.99609H3.24609C2.83188 3.99609 2.49609 3.66031 2.49609 3.24609Z" />
<path fill-rule="evenodd" clip-rule="evenodd" d="M2.49609 18.6597C2.49609 18.2455 2.83188 17.9097 3.24609 17.9097H8.06243C8.47665 17.9097 8.81243 18.2455 8.81243 18.6597C8.81243 19.0739 8.47665 19.4097 8.06243 19.4097H3.24609C2.83188 19.4097 2.49609 19.0739 2.49609 18.6597Z" />
<path fill-rule="evenodd" clip-rule="evenodd" d="M2.49609 14.8066C2.49609 14.3924 2.83188 14.0566 3.24609 14.0566H9.9894C10.4036 14.0566 10.7394 14.3924 10.7394 14.8066C10.7394 15.2209 10.4036 15.5566 9.9894 15.5566H3.24609C2.83188 15.5566 2.49609 15.2209 2.49609 14.8066Z" />
</svg>
