<svg width="30" height="30" viewBox="0 0 30 30" fill="none" xmlns="http://www.w3.org/2000/svg">
<path d="M26.8359 6.92578L20.3027 0.492187C20.2148 0.404297 20.0918 0.351562 19.9629 0.351562H7.91016C6.08789 0.351562 4.61133 1.91016 4.61133 3.83203V15.8571H3.00586V25.3828H4.61133V26.168C4.61133 28.084 6.09375 29.6484 7.91016 29.6484H23.6953C25.5176 29.6484 26.9941 28.0898 26.9941 26.168V7.30664C26.9941 7.16602 26.9414 7.02539 26.8359 6.92578ZM19.7988 1.42969L25.4824 7.03125H22.3887C20.959 7.03125 19.7988 5.88867 19.7988 4.48828V1.42969ZM25.998 26.168C25.998 27.5098 24.9668 28.5996 23.6953 28.5996H7.91016C6.63867 28.5996 5.60742 27.5098 5.60742 26.168V25.3828H20.5C22.6387 25.3828 24.5 23.4023 24.5 21C24.5 17.9707 22.6328 15.8571 20.5 15.8571H5.60742V3.83203C5.60742 2.49023 6.63867 1.40039 7.91016 1.40039H18.8027V4.48828C18.8027 6.46875 20.4082 8.08008 22.3887 8.08008H25.998V26.168ZM17.5254 21.7852C17.4358 21.5163 17.5766 25.5249 17.5254 21.7852Z" fill="#87B6FD"/>
<path d="M4.49023 23V17.96H6.09673C6.13873 17.96 6.22157 17.9611 6.34523 17.9635C6.47123 17.9658 6.59257 17.974 6.70923 17.988C7.10823 18.0393 7.4454 18.1816 7.72073 18.415C7.9984 18.646 8.2084 18.9411 8.35073 19.3005C8.49307 19.6598 8.56423 20.053 8.56423 20.48C8.56423 20.907 8.49307 21.3001 8.35073 21.6595C8.2084 22.0188 7.9984 22.3151 7.72073 22.5485C7.4454 22.7795 7.10823 22.9206 6.70923 22.972C6.5949 22.986 6.47473 22.9941 6.34873 22.9965C6.22273 22.9988 6.13873 23 6.09673 23H4.49023ZM5.34773 22.2055H6.09673C6.16673 22.2055 6.2554 22.2031 6.36273 22.1985C6.4724 22.1938 6.56923 22.1833 6.65323 22.167C6.89123 22.1226 7.0849 22.0165 7.23423 21.8485C7.38357 21.6805 7.49323 21.4763 7.56323 21.236C7.63557 20.9956 7.67173 20.7436 7.67173 20.48C7.67173 20.207 7.63557 19.9503 7.56323 19.71C7.4909 19.4696 7.3789 19.2678 7.22723 19.1045C7.0779 18.9411 6.88657 18.8373 6.65323 18.793C6.56923 18.7743 6.4724 18.7638 6.36273 18.7615C6.2554 18.7568 6.16673 18.7545 6.09673 18.7545H5.34773V22.2055Z" fill="white"/>
<path d="M11.5231 23.105C11.0191 23.105 10.5874 22.9953 10.2281 22.776C9.86877 22.5543 9.59227 22.2463 9.3986 21.852C9.20727 21.4576 9.1116 21.0003 9.1116 20.48C9.1116 19.9596 9.20727 19.5023 9.3986 19.108C9.59227 18.7136 9.86877 18.4068 10.2281 18.1875C10.5874 17.9658 11.0191 17.855 11.5231 17.855C12.0271 17.855 12.4588 17.9658 12.8181 18.1875C13.1798 18.4068 13.4563 18.7136 13.6476 19.108C13.8413 19.5023 13.9381 19.9596 13.9381 20.48C13.9381 21.0003 13.8413 21.4576 13.6476 21.852C13.4563 22.2463 13.1798 22.5543 12.8181 22.776C12.4588 22.9953 12.0271 23.105 11.5231 23.105ZM11.5231 22.3105C11.8614 22.3128 12.1426 22.2381 12.3666 22.0865C12.5929 21.9348 12.7621 21.7213 12.8741 21.446C12.9884 21.1706 13.0456 20.8486 13.0456 20.48C13.0456 20.1113 12.9884 19.7916 12.8741 19.521C12.7621 19.248 12.5929 19.0356 12.3666 18.884C12.1426 18.7323 11.8614 18.6541 11.5231 18.6495C11.1848 18.6471 10.9036 18.7218 10.6796 18.8735C10.4556 19.0251 10.2864 19.2386 10.1721 19.514C10.0601 19.7893 10.0041 20.1113 10.0041 20.48C10.0041 20.8486 10.0601 21.1695 10.1721 21.4425C10.2841 21.7131 10.4521 21.9243 10.6761 22.076C10.9024 22.2276 11.1848 22.3058 11.5231 22.3105Z" fill="white"/>
<path d="M16.7663 23.105C16.2623 23.105 15.8306 22.9953 15.4713 22.776C15.1119 22.5543 14.8354 22.2463 14.6418 21.852C14.4504 21.4576 14.3548 21.0003 14.3548 20.48C14.3548 19.9596 14.4504 19.5023 14.6418 19.108C14.8354 18.7136 15.1119 18.4068 15.4713 18.1875C15.8306 17.9658 16.2623 17.855 16.7663 17.855C17.3473 17.855 17.8314 18.0008 18.2188 18.2925C18.6061 18.5818 18.8779 18.9726 19.0343 19.465L18.1838 19.6995C18.0858 19.3705 17.9189 19.1138 17.6833 18.9295C17.4476 18.7428 17.1419 18.6495 16.7663 18.6495C16.4279 18.6495 16.1456 18.7253 15.9193 18.877C15.6953 19.0286 15.5261 19.2421 15.4118 19.5175C15.2998 19.7905 15.2426 20.1113 15.2403 20.48C15.2403 20.8486 15.2963 21.1706 15.4083 21.446C15.5226 21.719 15.6929 21.9313 15.9193 22.083C16.1456 22.2346 16.4279 22.3105 16.7663 22.3105C17.1419 22.3105 17.4476 22.2171 17.6833 22.0305C17.9189 21.8438 18.0858 21.5871 18.1838 21.2605L19.0343 21.495C18.8779 21.9873 18.6061 22.3793 18.2188 22.671C17.8314 22.9603 17.3473 23.105 16.7663 23.105Z" fill="white"/>
</svg>
