<svg viewBox="0 0 19 21" xmlns="http://www.w3.org/2000/svg">
<path d="M5.02423 1.31031C5.77519 1.5647 6.4896 1.91636 7.14923 2.35631C8.0808 2.11822 9.0387 1.9986 10.0002 2.00031C10.9932 2.00031 11.9512 2.12431 12.8492 2.35531C13.5086 1.91578 14.2227 1.56446 14.9732 1.31031C15.6702 1.07331 16.6632 0.689306 17.2532 1.34231C17.6532 1.78631 17.7532 2.53031 17.8242 3.09831C17.9042 3.73231 17.9232 4.55831 17.7132 5.37831C18.5162 6.41531 19.0002 7.65231 19.0002 9.0003C19.0002 11.0423 17.8942 12.8153 16.2572 14.0433C15.4694 14.6268 14.5956 15.0843 13.6672 15.3993C13.8812 15.8893 14.0002 16.4313 14.0002 17.0003V20.0003C14.0002 20.2655 13.8949 20.5199 13.7073 20.7074C13.5198 20.8949 13.2654 21.0003 13.0002 21.0003H7.00023C6.73501 21.0003 6.48066 20.8949 6.29312 20.7074C6.10559 20.5199 6.00023 20.2655 6.00023 20.0003V19.0093C5.04523 19.1263 4.24423 19.0223 3.56323 18.7333C2.85123 18.4313 2.35523 17.9633 1.98223 17.5153C1.62823 17.0913 1.24223 16.1353 0.68423 15.9493C0.5596 15.9078 0.44437 15.8422 0.34512 15.7561C0.24586 15.6701 0.16452 15.5654 0.10574 15.4479C-0.0129701 15.2107 -0.0325802 14.936 0.0512298 14.6843C0.13504 14.4326 0.3154 14.2245 0.55263 14.1058C0.78986 13.9871 1.06454 13.9675 1.31623 14.0513C1.98223 14.2733 2.41623 14.7533 2.71323 15.1393C3.19323 15.7593 3.58323 16.5693 4.34323 16.8923C4.65623 17.0253 5.11523 17.1123 5.83323 17.0143L6.00023 16.9803C6.00214 16.4361 6.11547 15.898 6.33323 15.3993C5.40482 15.0843 4.53104 14.6269 3.74323 14.0433C2.10623 12.8153 1.00023 11.0433 1.00023 9.0003C1.00023 7.65431 1.48323 6.41831 2.28423 5.38231C2.07423 4.56231 2.09223 3.73431 2.17223 3.09931L2.17723 3.06131C2.25023 2.47931 2.33523 1.79431 2.74323 1.34231C3.33323 0.689306 4.32723 1.07431 5.02323 1.31131L5.02423 1.31031Z" />
</svg>
