<svg viewBox="0 0 20 20" xmlns="http://www.w3.org/2000/svg">
<path d="M15.5556 0H4.44444C3.2657 0 2.13524 0.46825 1.30175 1.30175C0.46825 2.13524 0 3.2657 0 4.44444V15.5556C0 16.7343 0.46825 17.8648 1.30175 18.6983C2.13524 19.5317 3.2657 20 4.44444 20H15.5556C16.7343 20 17.8648 19.5317 18.6983 18.6983C19.5317 17.8648 20 16.7343 20 15.5556V4.44444C20 3.2657 19.5317 2.13524 18.6983 1.30175C17.8648 0.46825 16.7343 0 15.5556 0ZM13.1418 13.1428C12.3083 13.9763 11.1779 14.4446 9.9991 14.4446C8.8204 14.4446 7.68993 13.9763 6.85643 13.1428C6.02294 12.3093 5.55469 11.1788 5.55469 10.0001C5.55469 8.8214 6.02294 7.69091 6.85643 6.85741C7.68993 6.02392 8.8204 5.55566 9.9991 5.55566C11.1779 5.55566 12.3083 6.02392 13.1418 6.85741C13.9753 7.69091 14.4436 8.8214 14.4436 10.0001C14.4436 11.1788 13.9753 12.3093 13.1418 13.1428ZM16.8968 4.67456C16.6884 4.88294 16.4058 5 16.1111 5C15.8164 5 15.5338 4.88294 15.3254 4.67456C15.1171 4.46619 15 4.18357 15 3.88889C15 3.5942 15.1171 3.31159 15.3254 3.10321C15.5338 2.89484 15.8164 2.77778 16.1111 2.77778C16.4058 2.77778 16.6884 2.89484 16.8968 3.10321C17.1052 3.31159 17.2222 3.5942 17.2222 3.88889C17.2222 4.18357 17.1052 4.46619 16.8968 4.67456Z" />
</svg>
