<svg viewBox="0 0 24 24" xmlns="http://www.w3.org/2000/svg">
<path fill-rule="evenodd" clip-rule="evenodd" d="M11.4822 1.04808C10.7917 1.15748 10.1578 1.49471 9.68117 2.00608C9.35417 2.35008 9.18817 2.63308 8.79617 3.51708C8.60917 3.93808 8.40317 4.36408 8.33817 4.46308C8.10817 4.81308 7.63117 5.06708 7.20417 5.06708C7.10017 5.06708 6.66617 5.02908 6.23917 4.98308C5.34417 4.88708 5.08617 4.88108 4.71617 4.94808C3.54217 5.15908 2.61317 5.94808 2.22917 7.05908C1.94917 7.86908 2.01517 8.82808 2.40117 9.56508C2.47417 9.70308 2.76717 10.1391 3.05417 10.5331C3.72717 11.4601 3.74817 11.5041 3.74817 12.0001C3.74817 12.4961 3.72717 12.5401 3.05417 13.4671C2.76717 13.8611 2.47417 14.2971 2.40117 14.4351C2.1349 14.9668 2.01938 15.5613 2.06717 16.1541C2.10917 16.6401 2.20217 16.9531 2.43817 17.4071C2.89417 18.2831 3.70117 18.8661 4.71617 19.0511C5.08517 19.1191 5.34217 19.1131 6.23917 19.0171C6.66617 18.9711 7.10017 18.9331 7.20417 18.9331C7.63117 18.9331 8.10917 19.1901 8.34217 19.5421C8.40517 19.6381 8.60917 20.0621 8.79617 20.4831C9.18817 21.3671 9.35417 21.6501 9.68117 21.9941C9.97581 22.3052 10.33 22.5539 10.7226 22.7254C11.1153 22.8969 11.5384 22.9878 11.9669 22.9925C12.3953 22.9973 12.8204 22.9158 13.2167 22.7531C13.6131 22.5903 13.9727 22.3496 14.2742 22.0451C14.6562 21.6581 14.7702 21.4671 15.1982 20.5011C15.3462 20.1681 15.5102 19.8101 15.5632 19.7061C15.7562 19.3221 16.2322 18.9901 16.6502 18.9461C16.7772 18.9331 17.1582 18.9591 17.6992 19.0161C18.9772 19.1531 19.4442 19.1111 20.0922 18.8011C20.7932 18.4651 21.2612 18.0121 21.5902 17.3501C21.8692 16.7891 21.9472 16.4151 21.9232 15.7591C21.8932 14.9241 21.7342 14.5501 20.9642 13.5001C20.6882 13.1241 20.4152 12.7191 20.3562 12.6011C20.2542 12.3951 20.2492 12.3661 20.2502 12.0011C20.2502 11.6491 20.2582 11.6011 20.3432 11.4271C20.3942 11.3221 20.6202 10.9841 20.8452 10.6741C21.3782 9.94308 21.5022 9.75908 21.6242 9.51708C22.0312 8.70708 22.0532 7.68408 21.6802 6.83108C21.4715 6.34068 21.1424 5.91089 20.7234 5.58155C20.3044 5.25221 19.809 5.03398 19.2832 4.94708C18.9082 4.88108 18.6512 4.88808 17.7432 4.98608C16.5182 5.11908 16.2712 5.07608 15.8472 4.65208C15.6242 4.42908 15.5982 4.38608 15.3512 3.83308C14.7592 2.51408 14.6672 2.35308 14.2742 1.95508C13.8404 1.52348 13.2956 1.2203 12.7002 1.07908C12.2981 1.00693 11.8874 0.996473 11.4822 1.04808ZM12.5122 3.11608C12.8532 3.27808 12.9872 3.45008 13.2812 4.10408C13.8782 5.43308 13.9762 5.60608 14.3472 5.99608C14.8202 6.49208 15.4102 6.82608 16.0952 6.98508C16.5072 7.08108 16.9212 7.08008 17.7992 6.98408C18.2682 6.93208 18.7152 6.90008 18.8492 6.90808C19.2802 6.93508 19.6682 7.21208 19.8582 7.62708C19.9292 7.78308 19.9452 7.86708 19.9462 8.10008C19.9482 8.48108 19.8912 8.59508 19.2862 9.42608C18.7282 10.1921 18.5692 10.4521 18.4312 10.8321C18.1202 11.6831 18.1792 12.7381 18.5822 13.5331C18.6962 13.7581 18.8732 14.0201 19.3962 14.7331C19.8602 15.3681 19.9412 15.5401 19.9422 15.9001C19.9442 16.3651 19.6922 16.7771 19.2772 16.9831C19.0052 17.1191 18.7532 17.1251 17.7482 17.0171C16.8702 16.9231 16.5502 16.9231 16.0992 17.0181C15.1482 17.2181 14.2912 17.8571 13.8342 18.7061C13.6767 19.0217 13.527 19.3411 13.3852 19.6641C13.0282 20.4641 12.9552 20.5871 12.7352 20.7481C12.4832 20.9331 12.3212 20.9831 11.9822 20.9821C11.7212 20.9811 11.6582 20.9691 11.4942 20.8871C11.3636 20.8151 11.2435 20.7256 11.1372 20.6211C10.9862 20.4681 10.9262 20.3571 10.5802 19.5831C10.3472 19.0601 10.1202 18.6071 10.0092 18.4391C9.46017 17.6111 8.52917 17.0601 7.50717 16.9581C7.16817 16.9231 7.04717 16.9291 6.22117 17.0151C5.72017 17.0671 5.22617 17.1021 5.12417 17.0941C4.45017 17.0381 3.93017 16.3421 4.06617 15.6791C4.12317 15.4041 4.16317 15.3371 4.73217 14.5501C5.01017 14.1651 5.29317 13.7531 5.35917 13.6341C5.89917 12.6691 5.89917 11.3311 5.35917 10.3661C5.16098 10.0535 4.95186 9.74796 4.73217 9.45008C4.16317 8.66308 4.12317 8.59608 4.06617 8.32108C3.96017 7.80608 4.23317 7.26908 4.72217 7.02808C5.02217 6.88008 5.17317 6.87608 6.23317 6.98608C7.04917 7.07108 7.17317 7.07608 7.51017 7.04208C8.18208 6.97019 8.81979 6.70907 9.34917 6.28908C9.86217 5.87708 10.0652 5.57008 10.5812 4.41408C10.9252 3.64508 10.9862 3.53108 11.1362 3.38008C11.3032 3.21008 11.5182 3.08008 11.7142 3.02908C11.9152 2.97708 12.3082 3.02008 12.5122 3.11608Z" />
<path fill-rule="evenodd" clip-rule="evenodd" d="M8 12C8 9.7908 9.79091 8 12 8C14.2092 8 16 9.79082 16 12C16 14.2092 14.2092 16 12 16C9.79091 16 8 14.2092 8 12ZM12 10C10.8955 10 10 10.8954 10 12C10 13.1046 10.8955 14 12 14C13.1046 14 14 13.1046 14 12C14 10.8954 13.1046 10 12 10Z" />
</svg>
