<svg viewBox="0 0 18 19" xmlns="http://www.w3.org/2000/svg">
<path opacity="0.4" d="M9.73223 2.83521L11.4021 6.19092C11.5251 6.43404 11.7599 6.60288 12.0307 6.6404L15.7815 7.18667C16.0006 7.21744 16.1994 7.333 16.3336 7.50934C16.4664 7.68343 16.5234 7.90404 16.4912 8.1209C16.4649 8.30099 16.3802 8.46757 16.2504 8.59514L13.5325 11.2297C13.3337 11.4136 13.2437 11.686 13.2917 11.9523L13.9609 15.6562C14.0321 16.1035 13.7358 16.5252 13.2917 16.61C13.1087 16.6392 12.9212 16.6085 12.7561 16.5244L9.41041 14.7813C9.1621 14.656 8.86879 14.656 8.62049 14.7813L5.27477 16.5244C4.86368 16.7428 4.35432 16.5942 4.12552 16.189C4.04075 16.0277 4.01075 15.8438 4.0385 15.6645L4.70765 11.9599C4.75566 11.6942 4.66489 11.4203 4.46685 11.2365L1.74901 8.60339C1.42569 8.29123 1.41594 7.77722 1.72726 7.45381C1.73401 7.44706 1.74151 7.43955 1.74901 7.43205C1.87804 7.30073 2.04758 7.21744 2.23062 7.19568L5.98142 6.64865C6.25148 6.61038 6.48628 6.44304 6.61006 6.19842L8.2199 2.83521C8.36318 2.54706 8.66025 2.36772 8.98282 2.37523H9.08334C9.36315 2.40899 9.60695 2.58233 9.73223 2.83521" />
<path d="M8.99401 14.6878C8.84873 14.6923 8.7072 14.7314 8.5799 14.8012L5.25054 16.5404C4.84317 16.7348 4.35567 16.5839 4.12728 16.1943C4.04266 16.0352 4.01195 15.8528 4.04041 15.6741L4.70538 11.9774C4.75031 11.7086 4.66045 11.4354 4.465 11.2463L1.74595 8.61386C1.4232 8.29785 1.41721 7.77917 1.73322 7.45566C1.73772 7.45115 1.74146 7.4474 1.74595 7.44365C1.87475 7.31604 2.041 7.23197 2.21997 7.2057L5.97392 6.65325C6.24575 6.61872 6.48164 6.44908 6.60145 6.20288L8.23318 2.79734C8.38819 2.52261 8.68549 2.35898 9 2.37624C8.99401 2.59918 8.99401 14.5362 8.99401 14.6878" />
</svg>
