<svg viewBox="0 0 13 13" xmlns="http://www.w3.org/2000/svg">
<path d="M5.65087 1.35925C6.04242 0.731812 6.95604 0.731812 7.34759 1.35925L8.6958 3.51967C8.84136 3.75293 9.07655 3.91596 9.34605 3.97043L11.852 4.4769C12.6243 4.63299 12.9211 5.57944 12.3762 6.14861L10.7444 7.85313C10.5402 8.0664 10.4407 8.35899 10.4726 8.65251L10.7262 10.9903C10.808 11.7444 10.0532 12.3115 9.35163 12.023L6.8796 11.0063C6.63592 10.906 6.36254 10.906 6.11886 11.0063L3.64683 12.023C2.94527 12.3115 2.19048 11.7444 2.27229 10.9903L2.5259 8.65251C2.55774 8.35899 2.45825 8.0664 2.25407 7.85313L0.622263 6.14861C0.0773724 5.57944 0.374174 4.63299 1.1465 4.4769L3.65241 3.97043C3.92191 3.91596 4.1571 3.75293 4.30266 3.51967L5.65087 1.35925Z" />
</svg>
