<svg viewBox="0 0 22 13" xmlns="http://www.w3.org/2000/svg">
<path d="M20.503 12.3804H18.222C17.359 12.3804 17.099 11.6814 15.552 10.1334C14.2 8.8304 13.629 8.6684 13.287 8.6684C12.814 8.6684 12.685 8.7984 12.685 9.4494V11.5014C12.685 12.0564 12.505 12.3814 11.055 12.3814C9.6483 12.2869 8.28416 11.8595 7.07497 11.1345C5.86578 10.4095 4.84612 9.4076 4.1 8.2114C2.32839 6.0064 1.09571 3.41844 0.5 0.653358C0.5 0.311358 0.63 0.00135829 1.282 0.00135829H3.562C4.148 0.00135829 4.359 0.262358 4.589 0.865358C5.696 4.1234 7.585 6.9574 8.352 6.9574C8.646 6.9574 8.774 6.8274 8.774 6.0944V2.73836C8.677 1.20736 7.864 1.07836 7.864 0.524359C7.87428 0.378199 7.94114 0.241808 8.05037 0.144148C8.15961 0.0464881 8.30261 -0.00473171 8.449 0.00135829H12.033C12.523 0.00135829 12.685 0.245358 12.685 0.831358V5.3614C12.685 5.8504 12.895 6.0124 13.043 6.0124C13.337 6.0124 13.563 5.8504 14.102 5.3124C15.2574 3.90334 16.2013 2.33352 16.904 0.652358C16.9759 0.450508 17.1119 0.277728 17.2912 0.160368C17.4705 0.0430182 17.6832 -0.0124818 17.897 0.00235822H20.178C20.862 0.00235822 21.007 0.344358 20.862 0.832358C20.0324 2.69077 19.0058 4.4549 17.8 6.0944C17.554 6.4694 17.456 6.6644 17.8 7.1044C18.026 7.4464 18.826 8.1144 19.363 8.7494C20.145 9.5294 20.794 10.4314 21.285 11.4194C21.481 12.0554 21.154 12.3804 20.503 12.3804Z" />
</svg>
